<svg xmlns="http://www.w3.org/2000/svg" viewBox="0 0 507.27 648.09"><defs><style>.cls-1{isolation:isolate;}.cls-2{opacity:0.27;mix-blend-mode:multiply;}.cls-3{fill:#304e43;}</style></defs><title>Insumos_pagina</title><g class="cls-1"><g id="Modo_de_aislamiento" data-name="Modo de aislamiento"><g class="cls-2"><path class="cls-3" d="M135.57,449.35c18.24,3.85,38,2.65,57.09,1.5,4.89-.3,9.71-.59,14.43-.79,27.75-1.17,63.09-.24,97.28.66,73.1,1.93,142.14,3.75,159.08-12.54a4.47,4.47,0,0,0-2.77-7.68c-28.9-2.11-57.37-11.6-84.91-20.79-31.24-10.41-63.55-21.18-97.15-21.56h0c-25-.28-52,5.3-82.39,17.05-2.17.83-5,1.83-8.29,3-11.1,3.89-22.08,8-31.36,12.49Q178.24,392.8,200,368.24a73.83,73.83,0,0,0-7,9.84,4.45,4.45,0,0,0-.08,4.36,4.35,4.35,0,0,0,1.39,1.56,4.46,4.46,0,0,0,2.28.79C249.94,388,321.3,348.9,368.8,322.89c22.06-12.07,44.15-26.32,56.26-48.74a4.46,4.46,0,0,0-.48-4.95,4.51,4.51,0,0,0-4.76-1.45,1357.47,1357.47,0,0,0-133,48.3l-4.95,2.09c-25.41,10.71-58.69,24.79-79,46.82,33.74-37.75,67.89-69.82,103.14-96.95a10.51,10.51,0,0,0,3.33,3.87c.17.12.35.24.54.35a10.19,10.19,0,0,0,9.17.78c37.93-15.29,75.42-55,102.8-83.92l3.74-4a4.46,4.46,0,0,0-6.48-6.14h0c-4.48,4.72-19.26,11.79-34.88,19.27-33.33,16-74.08,35.46-79,59.06q-18.68,14.1-36.94,30.06c16.5-28.45,27.36-65.51,36.32-96.14l1.17-4c15.86-54.11,18.93-104,9.12-148.39a4.47,4.47,0,0,0-8.65-.29c-9.49,32.36-24.15,63.6-38.32,93.83-17.81,38-36.22,77.23-44.9,119.49-2.39,11.72-5.93,54,8.11,63.78a10.36,10.36,0,0,0,1.89,1.06,10.69,10.69,0,0,0,2.72.77q-31.37,30.76-62.12,67.65c3.66-13.72,6.66-31.65,9.51-52.6.4-3,.72-5.38,1-7.06h0c3.66-23.72,6.68-51.74,1.38-79.71-3.6-19.05-11-37.17-18.07-54.69C160.57,174,153.41,156.4,150,138.29a4.46,4.46,0,0,0-8.36-1.19c-15.56,30.54-14.59,52-13.65,72.79.55,12.39,1.08,24.08-2,37.28a322.13,322.13,0,0,0-8.16,90.54c0,.67,3.67,58,25.32,73.09a19.57,19.57,0,0,0,7.39,3.17c-4.59,5.9-9.19,11.86-13.78,18-34,45.26-69.09,99.7-71.87,160.19a4.46,4.46,0,1,0,8.92.41c2.44-53,31.18-101.7,61.39-143.39A3,3,0,0,0,135.57,449.35Zm69.7-73.45a8.1,8.1,0,0,0,.84.06l-.93,0Zm159-60.68c-41,22.41-107.86,59-157.91,60.73a5.86,5.86,0,0,0,1-.12,450.39,450.39,0,0,0,113.53-44.65c4.4-2.47,8.77-5,13.14-7.55,7.77-4.53,15.8-9.21,23.93-13.36,4-2.06,8.17-4,12.29-6,13.79-6.57,28-13.4,39.22-23.9.39-.13.78-.27,1.18-.39C398.9,294.9,381.67,305.67,364.23,315.22Zm-78.87,11.15,5-2.1c37-15.69,75.19-29.79,113.65-42.12-10.33,8.4-22.69,14.36-34.76,20.11-4.14,2-8.28,3.95-12.34,6-8.19,4.18-16.25,8.87-24,13.41-4.36,2.54-8.71,5.08-13.11,7.54a448.42,448.42,0,0,1-112.48,44.3C225.8,351.52,259.74,337.17,285.36,326.37ZM296.1,188.73c-10.21,34.9-22.92,78.35-43.39,106.43-5.62,7.71-9.91,11.49-12.81,12.88l5.61-49.3c1.08-9.58,2.21-19.5,4.18-29.15,5.39-26.45,17.23-51.4,28.68-75.52,7.68-16.18,15.62-32.9,21.61-50a256,256,0,0,0,10.16-38.54c3.89,36.49-.34,76.45-12.88,119.24Zm-64.24,65c8.45-41.23,26.63-80,44.22-117.5,11.55-24.63,23.4-49.94,32.64-76.14a252.58,252.58,0,0,1-10.85,43.25c-5.95,17-13.87,33.69-21.52,49.81-11.5,24.25-23.41,49.31-28.85,76-2,9.75-3.12,19.72-4.21,29.35l-5.71,50.22a2.2,2.2,0,0,1-.88-.15C229.54,305.53,227.76,273.66,231.86,253.69Zm72.74,188.1c-34.33-.9-69.83-1.84-97.89-.66-4.77.2-9.65.5-14.59.8-16.75,1-34,2.06-49.77-.42a11.77,11.77,0,0,1,.78-1,24.59,24.59,0,0,1,2.55,0l1.28,0c14.7-.12,29.26-3.5,43.33-6.77,3-.69,6-1.38,8.92-2a476.4,476.4,0,0,1,201.9-.75l2.68.58c8.66,1.88,17.57,3.79,26.53,3.45,4.69,1,9.41,1.94,14.16,2.67C417.22,444.76,358,443.19,304.6,441.79Zm68.34-23.6c14.45,4.82,29.16,9.72,44.12,13.64-4.3-.66-8.58-1.58-12.79-2.49l-2.68-.58a478.66,478.66,0,0,0-202.87.75c-3,.66-5.95,1.35-8.93,2-13.51,3.14-27.46,6.37-41.43,6.69a457.52,457.52,0,0,1,207.36-25.7Q364.38,415.33,372.94,418.19Zm-182-1.58c3.38-1.19,6.32-2.22,8.55-3.08,29.34-11.33,55.21-16.71,79.08-16.44h0c22.59.26,44.88,5.56,66.74,12.2a459.72,459.72,0,0,0-197.47,26.85C158.75,427.91,180.11,420.4,190.9,416.61ZM315.75,264.72a1.33,1.33,0,0,1-1.2-.13,2.77,2.77,0,0,1-.42-.38c17.54-10.56,34.19-23,50.4-35.14L386.9,212.3C365.1,233.72,340.29,254.83,315.75,264.72Zm72.36-58.4,8.53-4.1-33.57,25.16c-15.81,11.85-32.16,24-49.33,34.43C314.11,241.74,358.47,220.5,388.11,206.32ZM176.78,247.44c5,26.64,2.11,53.72-1.43,76.69-.27,1.71-.6,4.18-1,7.22-6.89,50.73-13.18,67.12-17.14,72.08.37-4.34.66-8.74.89-13.08.32-6.08.65-12.37,1.36-18.28,1.55-13,3.16-26.43,3.93-39.82,1.45-24.82.11-49.54-1.52-74.79-1.48-23-3.16-46-5-68.88l2.37,5.87C166.16,211.57,173.34,229.27,176.78,247.44Zm-22.6,158a9.08,9.08,0,0,1-1.16-.1c-2.78-3.18-3.89-8.12-4.58-12.82-6.87-47.12-6.44-94.82-5.33-143.61.68-30.07,1.65-60.42,2.79-90.47,2.38,7.78,5.15,15.44,8.1,23,2.1,25.22,4,50.76,5.64,76.19,1.62,25.18,3,49.82,1.51,74.52-.77,13.32-2.37,26.72-3.92,39.69-.72,6-1,12.3-1.37,18.42-.27,5-.57,10.15-1.05,15.12A2.16,2.16,0,0,1,154.18,405.45Zm-27.5-68.2a313.65,313.65,0,0,1,7.92-88c3.41-14.41,2.82-27.28,2.26-39.73-.74-16.53-1.49-33.54,7-55.51-1.22,31.5-2.23,63.36-2.94,94.88-1.11,48.89-1.54,96.7,5.35,144,.57,3.93,1.45,8,3.29,11.36C135.66,396.86,127.75,358.06,126.68,337.25Z"/><path class="cls-3" d="M323.2,226.42a6.22,6.22,0,0,0,2.09.94c5.23,1.31,9.28-4,12.55-9.35,7.41-12.13,12.84-26.33,17.2-37.74a355.23,355.23,0,0,0,14.42-47.37c2.11-9.25-2.45-12.32-4.55-13.22a4.44,4.44,0,0,0-4.84.87c-7.59,7.24-13.13,16.21-18.6,25.53-12.25,20.92-24.09,43.43-22.61,68.28C319,217.35,319.41,223.79,323.2,226.42ZM360,133.92a346.64,346.64,0,0,1-13.34,43.16c-4.24,11.07-9.51,24.84-16.49,36.28-.86,1.41-1.59,2.46-2.18,3.24-.09-.74-.18-1.65-.26-2.77-1.32-22.36,9.85-43.5,21.4-63.23A153.62,153.62,0,0,1,360,133.92Z"/></g></g></g></svg>