<svg xmlns="http://www.w3.org/2000/svg" viewBox="0 0 507.27 648.09"><defs><style>.cls-1{opacity:0.14;}.cls-2{fill:#528160;}</style></defs><title>Insumos_pagina</title><g id="Modo_de_aislamiento" data-name="Modo de aislamiento"><g class="cls-1"><path class="cls-2" d="M428.25,532.67c-10.13-1.93-20.43-6.3-32.4-13.74-18.27-11.35-33.94-25.66-47.54-41.32a143.52,143.52,0,0,1,21.3-57.22,138.09,138.09,0,0,1,9.51-12.57c2.88-3.51,5.77-7.06,8.36-10.83,11.21,4.51,22.82,6.73,33,5.25,9.94-1.41,20.2-5.79,31.34-13.37,13.78-9.37,31.33-25.29,36.61-48,3-12.91.51-29.28-11.89-36.74-7.54-4.54-17.64-5-29.2-1.22a80.71,80.71,0,0,0-39,27.43,102.15,102.15,0,0,0-13.66,25.05A93.08,93.08,0,0,0,368,306.79a20.76,20.76,0,0,0-7.86-5.2,16.17,16.17,0,0,0-15,3.15,25.41,25.41,0,0,0-7.49,10.85c-6,15-3.48,33.53,6.52,48.41,7.12,10.58,19.61,21.09,33.61,28.48-2.07,2.87-4.41,5.73-6.84,8.71a146.75,146.75,0,0,0-10.21,13.53,154.59,154.59,0,0,0-21.24,52.17C320,442,305.15,414.69,293.33,390.6l-4.69-9.68c-5.47-11.31-11.06-22.82-17.48-33.91a7.54,7.54,0,0,0,3.08,1.11c5.51.85,10.2-3.4,11.84-4.88,8.59-7.8,16.12-19,22.37-33.38,6.93-15.92,10.68-32.59,14.53-51.18,3.77-18.14,6.86-34.54,6.56-51.5-.36-20.12-5.83-37.77-15.8-51A15.86,15.86,0,0,0,308,151c-6.49-3.16-14,.12-20.06,8.73C262.42,195.89,249.68,236.51,252,274c1.1,17.5,5.38,34.61,9.52,51.16.32,1.28.61,2.66.91,4.09.43,2,.87,4,1.4,6-2.44-3.66-5-7.25-7.7-10.72C242,306.63,225,294.8,201.3,286.55c6-9.35,8.88-21.39,8.07-34.18-.66-10.5-3.64-21.64-9.36-35.1-8-18.94-18.81-36.67-29.22-53.82l-33-54.5c-1.23-2-5-8.21-11.61-7.87a11.45,11.45,0,0,0-7.54,3.78c-4.42,4.61-5.78,10.78-6.57,16.76-5.84,44,6.24,91,33.16,129,6.72,9.45,14.73,19.88,23.78,28.47-11.6-2-23.93-2.34-35.08-2.42a224.13,224.13,0,0,0-89.93,18c-9.84,4.25-22.23,10.48-30.69,20.95-3.6,4.46-5.2,8.66-4.88,12.8.55,6.89,5.86,12.18,15.81,15.73a155.89,155.89,0,0,0,28.48,7.16,156.24,156.24,0,0,0,121.47-31.72c10-7.86,19-16.25,19.05-24.68.29.1.57.23.86.32,24,7.7,40.06,18.4,53.74,35.78,12.89,16.36,22.23,35.71,31.28,54.44l4.73,9.73c2.53,5.17,5.22,10.49,8,15.9a75.28,75.28,0,0,0-24.61.13,30.61,30.61,0,0,0,3.06-6.24c2-6,2.35-13,.95-21.24-2.29-13.57-8.5-23.84-17.47-28.94-7.45-4.24-17-5-26.24-2.07-7.15,2.26-14,6.57-20.93,13.16-10.34,9.82-13.17,23.63-7.57,36.94a41.8,41.8,0,0,0,28.76,24.16,72.39,72.39,0,0,0-5.58,4.81c-10.34,9.81-13.16,23.62-7.56,36.94a41.79,41.79,0,0,0,31.49,24.78,35.63,35.63,0,0,0,6.2.41c15.26-.27,29.07-9.75,33.57-23,2-6,2.35-13,.95-21.26-2.23-13.07-8.09-23-16.52-28.29a64.39,64.39,0,0,1,26.92,1.57,4.64,4.64,0,0,0,1,.09c21,38,49.82,78.65,92,104.85,13,8.06,24.75,13,36.05,15.18l.19,0a5.23,5.23,0,0,0,1.75-10.32ZM478.13,323.5a159.32,159.32,0,0,1-81,65.86l-.64-.19C407.11,379.89,418.7,371,430,362.45c16.46-12.55,33.4-25.5,47.82-40.06C477.91,322.76,478,323.12,478.13,323.5Zm0,15c-4.54,19.42-20.09,33.42-32.34,41.75-9.79,6.66-18.58,10.47-26.88,11.65a46.82,46.82,0,0,1-17.68-1.28,162,162,0,0,0,77.57-63.28A34,34,0,0,1,478.16,338.47Zm-61.32-1.74a70.06,70.06,0,0,1,33.84-23.83c6-1.92,14.36-3.46,20.44.19a14.89,14.89,0,0,1,5.63,6.59c-14.48,14.79-31.68,27.95-48.39,40.68-10.79,8.22-21.83,16.69-32.12,25.55C400.74,369.36,406,350.89,416.84,336.73Zm-31,32a31.36,31.36,0,0,1-2.76,14.79l-.88-4.81c-3.66-20.25-7.83-42.87-19.15-61.94A82.07,82.07,0,0,1,385.82,368.73Zm-38.37-49.24a15.63,15.63,0,0,1,4.35-6.61,6.16,6.16,0,0,1,4.56-1.47l.08,0,.14.18c14.35,19.82,18.95,45.17,23,67.55l.49,2.71c-11.34-6.44-21.39-15.09-27.15-23.65C344.82,346.17,342.72,331.33,347.45,319.49Zm-74,10.53c-2.21-49.5,4.71-101,20.8-153.55-.11,2.69-.14,5.39-.17,8.06l0,1.3a627,627,0,0,1-19.52,148.36C274.11,332.87,273.74,331.4,273.43,330Zm29.72-169.71a.49.49,0,0,1,.24.08,8.39,8.39,0,0,1,1.88,2c10.91,14.52,13.47,32.45,13.69,44.93.29,15.89-2.69,31.69-6.33,49.22-3.73,18-7.36,34.13-13.89,49.14-5.67,13-12.34,23-19.83,29.83-1.68,1.53-2.69,2-2.84,2.27,0,0,0-.06-.05-.08a11.63,11.63,0,0,0,.93-2.31,630.31,630.31,0,0,0,19.74-149.5v-1.3c.07-7.18.22-14.53,1.95-21.41C300.52,161.17,302.23,160.17,303.15,160.31ZM262.58,273.46c-2.11-33.68,8.89-70.16,31-103.28-15.91,50-23.76,99.25-23.21,146.71C266.82,302.63,263.49,288,262.58,273.46Zm-140-150.41c.52-3.94,1.28-8.36,3.93-11.56.13.06.83.48,2.26,2.83l33,54.49C172,185.63,182.51,203,190.27,221.29c5.25,12.33,8,22.39,8.54,31.67.73,11.35-1.94,21.82-7.5,29.48l-.12.18c-14.62-7.68-28.08-25-37.34-38C128.44,208.81,117,164.51,122.54,123.05ZM29.8,334.88l-.36-.11c46.61-10.15,93.56-23.38,139-36.2l13.59-3.82A226.09,226.09,0,0,1,29.8,334.88ZM19,327.62c-.1-1.36.77-3.2,2.6-5.47,7-8.69,18-14.15,26.7-17.92a213.59,213.59,0,0,1,85.64-17.12c10,.08,21.05.34,31.32,1.92a83.81,83.81,0,0,1,13.36,3.09c.51.17.91.34,1.32.52l-12.16,3.41c-46.75,13.17-95,26.76-142.89,37C21.22,331.37,19.1,329.46,19,327.62Zm148.61-16.29a146.83,146.83,0,0,1-51.19,26,148.63,148.63,0,0,1-74.53,1,228.71,228.71,0,0,0,139-39.54C178.91,301.43,175.11,305.37,167.56,311.33Zm41.25,87.47c-3.9-9.31-2-18.56,5.15-25.38,5.76-5.47,11.28-9,16.87-10.77a25.17,25.17,0,0,1,11.39-1,18.53,18.53,0,0,1,6.36,2.14c8.31,4.71,11.25,15.51,12.26,21.53,1.11,6.55.93,11.84-.54,16.18-3.06,9.06-13.08,15.77-23.81,16C224.94,417.69,213.52,410,208.81,398.8Zm67.65,52.44c1.11,6.56.93,11.85-.54,16.2-3.07,9.05-13.08,15.76-23.81,16-11.53.2-23-7.48-27.68-18.71-3.92-9.31-2-18.56,5.14-25.37,5.78-5.49,11.29-9,16.88-10.77a25.25,25.25,0,0,1,11.38-1,18.74,18.74,0,0,1,6.37,2.15C272.48,434.43,275.44,445.23,276.46,451.24Z"/><path class="cls-2" d="M193.16,409.58a25.09,25.09,0,0,0-20-1.61c-5.31,1.68-10.39,4.87-15.54,9.76-7.86,7.45-10,17.94-5.75,28.06a31.44,31.44,0,0,0,23.69,18.61,27.08,27.08,0,0,0,4.68.32c11.55-.19,22-7.4,25.39-17.48,1.54-4.53,1.78-9.72.75-15.91C204.67,421.18,200,413.46,193.16,409.58ZM180,454.25c-7.7.08-15.23-5-18.37-12.44-1.49-3.56-3-10.43,3.34-16.49,4-3.77,7.72-6.18,11.48-7.37a16.5,16.5,0,0,1,7.44-.64,11.61,11.61,0,0,1,4,1.35c5.39,3.06,7.34,10.31,8,14.33.75,4.44.63,8-.34,10.87C193.64,449.75,187.07,454.12,180,454.25Z"/></g></g></svg>