<svg xmlns="http://www.w3.org/2000/svg" viewBox="0 0 507.27 648.09"><defs><style>.cls-1{fill:#ddc26c;}.cls-2{fill:#b99a4f;}</style></defs><title>Insumos_pagina</title><g id="Footer"><polygon class="cls-1" points="161.28 235.28 247.52 149.04 263.99 165.52 194.23 235.28 281.16 321.95 350.48 252.63 366.95 269.1 281.16 354.89 161.28 235.28"/><polygon class="cls-2" points="338.79 240.32 322.32 223.85 284.23 261.94 278.7 256.42 316.67 218.45 300.2 201.97 262.23 239.94 254.37 232.08 292.46 193.99 275.99 177.52 221.43 232.08 245.76 256.42 245.64 256.54 245.88 256.54 284.23 294.88 338.79 240.32"/><path class="cls-2" d="M36.09,440.44a16.75,16.75,0,0,1-6.71-6.32,19,19,0,0,1,0-18.59,16.75,16.75,0,0,1,6.71-6.32A20.15,20.15,0,0,1,45.64,407,16.9,16.9,0,0,1,55,409.34a16.59,16.59,0,0,1,5.7,6.11l-7.66,3.62a8.29,8.29,0,0,0-2.93-3.57,7.63,7.63,0,0,0-4.48-1.45,8.88,8.88,0,0,0-5,1.43,9.82,9.82,0,0,0-3.42,3.87,12.68,12.68,0,0,0,0,10.94,9.85,9.85,0,0,0,3.42,3.88,8.88,8.88,0,0,0,5,1.43,7.57,7.57,0,0,0,4.48-1.46,8.18,8.18,0,0,0,2.93-3.57l7.66,3.63A16.5,16.5,0,0,1,55,440.29a17,17,0,0,1-9.4,2.4A20.15,20.15,0,0,1,36.09,440.44Z"/><path class="cls-2" d="M65.71,415.58a16.83,16.83,0,0,1,6.62-6.34,20.68,20.68,0,0,1,18.88,0,16.84,16.84,0,0,1,6.6,6.34,18.94,18.94,0,0,1,0,18.49,16.84,16.84,0,0,1-6.6,6.34,20.68,20.68,0,0,1-18.88,0,16.83,16.83,0,0,1-6.62-6.34,18.94,18.94,0,0,1,0-18.49ZM90,419.35a9.35,9.35,0,0,0-3.28-3.87,8.64,8.64,0,0,0-4.92-1.43,8.74,8.74,0,0,0-5,1.43,9.28,9.28,0,0,0-3.31,3.87,13.37,13.37,0,0,0,0,10.94,9.3,9.3,0,0,0,3.31,3.88,8.74,8.74,0,0,0,5,1.43,8.64,8.64,0,0,0,4.92-1.43A9.38,9.38,0,0,0,90,430.29a13.37,13.37,0,0,0,0-10.94Z"/><path class="cls-2" d="M114.15,422.08v20h-8.9V407.53h9.16l14,19v-19h9v34.54h-8.59Z"/><path class="cls-2" d="M149.52,425.57a11.67,11.67,0,0,1-4.79-2.93,7.68,7.68,0,0,1-2-5.65,8.41,8.41,0,0,1,1.63-5,11.11,11.11,0,0,1,4.76-3.67,18.37,18.37,0,0,1,7.38-1.37,25.59,25.59,0,0,1,7.72,1.13,19.37,19.37,0,0,1,6.32,3.36l-4.87,6.18a14.93,14.93,0,0,0-4.79-2.67,16.29,16.29,0,0,0-5.31-.91,4.41,4.41,0,0,0-2.8.75,2.42,2.42,0,0,0-.93,2,2,2,0,0,0,1.37,1.82,31.62,31.62,0,0,0,4.59,1.49,48.61,48.61,0,0,1,6.73,1.84,12.07,12.07,0,0,1,4.79,3.24,8.46,8.46,0,0,1,2,5.95,10.38,10.38,0,0,1-3.78,8.42q-3.78,3.13-10.61,3.13-9.59,0-15.33-5.12l4.71-6.53a16.25,16.25,0,0,0,4.87,3.29,15.06,15.06,0,0,0,6.16,1.27,5.28,5.28,0,0,0,3.6-1.15,3.65,3.65,0,0,0,1.32-2.9,2.82,2.82,0,0,0-1.4-2.61"/><path class="cls-2" d="M183.49,414.62h-9.68v-7.09H202v7.09H192.4v27.45h-8.91Z"/><path class="cls-2" d="M220.26,430.47H215.7v11.6h-8.9V407.53h17.29a13.14,13.14,0,0,1,6.45,1.5,10.2,10.2,0,0,1,4.14,4.12,12.06,12.06,0,0,1,1.43,5.87,10.6,10.6,0,0,1-2.05,6.76,10.48,10.48,0,0,1-4.84,3.6l7,12.69h-10.2Zm5.54-14.69a4.31,4.31,0,0,0-3.05-1.16H215.7v8.75h7.05a4.27,4.27,0,0,0,3.05-1.16,4.22,4.22,0,0,0,1.25-3.24A4.16,4.16,0,0,0,225.8,415.78Z"/><path class="cls-2" d="M241.54,407.53h9.07v20.82a7.32,7.32,0,0,0,1.89,5.25,8.25,8.25,0,0,0,10.77,0,7.32,7.32,0,0,0,1.89-5.25V407.53h9V428q0,6.69-4.12,10.67t-12.14,4q-8.09,0-12.22-4a14.05,14.05,0,0,1-4.15-10.61Z"/><path class="cls-2" d="M288.28,440.44a16.81,16.81,0,0,1-6.71-6.32,19,19,0,0,1,0-18.59,16.81,16.81,0,0,1,6.71-6.32,20.19,20.19,0,0,1,9.56-2.25,16.92,16.92,0,0,1,9.37,2.38,16.68,16.68,0,0,1,5.7,6.11l-7.67,3.62a8.27,8.27,0,0,0-2.92-3.57,7.65,7.65,0,0,0-4.48-1.45,8.89,8.89,0,0,0-5,1.43,9.72,9.72,0,0,0-3.41,3.87,12.59,12.59,0,0,0,0,10.94,9.75,9.75,0,0,0,3.41,3.88,8.89,8.89,0,0,0,5,1.43,7.59,7.59,0,0,0,4.48-1.46,8.15,8.15,0,0,0,2.92-3.57l7.67,3.63a16.67,16.67,0,0,1-5.67,6.09,17,17,0,0,1-9.4,2.4A20.19,20.19,0,0,1,288.28,440.44Z"/><path class="cls-2" d="M325,414.62h-9.68v-7.09h28.22v7.09h-9.63v27.45H325Z"/><path class="cls-2" d="M347.78,415.58a16.92,16.92,0,0,1,6.63-6.34,20.68,20.68,0,0,1,18.88,0,17,17,0,0,1,6.6,6.34,18.94,18.94,0,0,1,0,18.49,17,17,0,0,1-6.6,6.34,20.68,20.68,0,0,1-18.88,0,16.92,16.92,0,0,1-6.63-6.34,18.94,18.94,0,0,1,0-18.49Zm24.29,3.77a9.38,9.38,0,0,0-3.29-3.87,8.6,8.6,0,0,0-4.92-1.43,8.73,8.73,0,0,0-4.94,1.43,9.3,9.3,0,0,0-3.32,3.87,13.48,13.48,0,0,0,0,10.94,9.33,9.33,0,0,0,3.32,3.88,8.73,8.73,0,0,0,4.94,1.43,8.6,8.6,0,0,0,4.92-1.43,9.4,9.4,0,0,0,3.29-3.88,13.37,13.37,0,0,0,0-10.94Z"/><path class="cls-2" d="M400.79,430.47h-4.56v11.6h-8.91V407.53h17.3a13.13,13.13,0,0,1,6.44,1.5,10.17,10.17,0,0,1,4.15,4.12,12.05,12.05,0,0,1,1.42,5.87,10.65,10.65,0,0,1-2,6.76,10.51,10.51,0,0,1-4.85,3.6l7.05,12.69h-10.2Zm5.54-14.69a4.34,4.34,0,0,0-3.06-1.16h-7v8.75h7a4.29,4.29,0,0,0,3.06-1.16,4.21,4.21,0,0,0,1.24-3.24A4.16,4.16,0,0,0,406.33,415.78Z"/><path class="cls-2" d="M422.07,407.53h25.32v7.09H431v6.06h16v7.1H431V435h16.41v7.1H422.07Z"/><path class="cls-2" d="M458.53,425.57a11.61,11.61,0,0,1-4.79-2.93,7.64,7.64,0,0,1-2.05-5.65,8.41,8.41,0,0,1,1.63-5,11.14,11.14,0,0,1,4.77-3.67,18.29,18.29,0,0,1,7.37-1.37,25.54,25.54,0,0,1,7.72,1.13,19.27,19.27,0,0,1,6.32,3.36l-4.87,6.18a14.72,14.72,0,0,0-4.79-2.67,16.29,16.29,0,0,0-5.31-.91,4.38,4.38,0,0,0-2.79.75,2.4,2.4,0,0,0-.94,2,2,2,0,0,0,1.38,1.82,31.39,31.39,0,0,0,4.58,1.49,48.22,48.22,0,0,1,6.73,1.84,12,12,0,0,1,4.79,3.24,8.42,8.42,0,0,1,2.05,5.95,10.38,10.38,0,0,1-3.78,8.42q-3.78,3.13-10.62,3.13-9.58,0-15.33-5.12l4.71-6.53a16.25,16.25,0,0,0,4.87,3.29,15.1,15.1,0,0,0,6.17,1.27,5.27,5.27,0,0,0,3.59-1.15,3.66,3.66,0,0,0,1.33-2.9,2.84,2.84,0,0,0-1.4-2.61"/><path class="cls-1" d="M123,463.88H148.3V471H131.89V477h16.05v7.09H131.89v7.2H148.3v7.09H123Z"/><path class="cls-1" d="M168.4,486.82l-7.51,11.6H150.32l12.07-17.71L151.1,463.88h10.51l6.79,10.83,6.68-10.83h10.56L174.4,480.66l12,17.76H175.9Z"/><path class="cls-1" d="M189.53,463.88h17.29a13,13,0,0,1,6.5,1.53,10.26,10.26,0,0,1,4.12,4.14,12.22,12.22,0,0,1,1.4,5.83,12,12,0,0,1-1.4,5.77,10.22,10.22,0,0,1-4.12,4.15,13.15,13.15,0,0,1-6.5,1.52h-8.39v11.6h-8.9Zm19.08,8.26a4,4,0,0,0-3-1.16h-7.2v8.75h7.2a4.06,4.06,0,0,0,3-1.16,4.3,4.3,0,0,0,1.16-3.19A4.37,4.37,0,0,0,208.61,472.14Z"/><path class="cls-1" d="M223.34,463.88h25.32V471H232.25V477H248.3v7.09H232.25v7.2h16.41v7.09H223.34Z"/><path class="cls-1" d="M267.82,486.82h-4.55v11.6h-8.91V463.88h17.3a13.13,13.13,0,0,1,6.44,1.5,10.29,10.29,0,0,1,4.15,4.12,12.06,12.06,0,0,1,1.42,5.88,10.46,10.46,0,0,1-6.89,10.36l7.05,12.68H273.62Zm5.55-14.68a4.29,4.29,0,0,0-3.06-1.16h-7v8.75h7a4.34,4.34,0,0,0,3.06-1.16,4.27,4.27,0,0,0,1.24-3.25A4.19,4.19,0,0,0,273.37,472.14Z"/><path class="cls-1" d="M296.26,471h-9.69v-7.1h28.22V471h-9.63v27.44h-8.9Z"/><path class="cls-1" d="M319.07,471.93a16.9,16.9,0,0,1,6.62-6.34,20.68,20.68,0,0,1,18.88,0,16.91,16.91,0,0,1,6.6,6.34,18.94,18.94,0,0,1,0,18.49,16.87,16.87,0,0,1-6.6,6.35,20.68,20.68,0,0,1-18.88,0,16.85,16.85,0,0,1-6.62-6.35,18.94,18.94,0,0,1,0-18.49Zm24.28,3.78a9.38,9.38,0,0,0-3.28-3.88,8.64,8.64,0,0,0-4.92-1.42,8.73,8.73,0,0,0-4.95,1.42,9.3,9.3,0,0,0-3.31,3.88,13.37,13.37,0,0,0,0,10.94,9.3,9.3,0,0,0,3.31,3.88,8.73,8.73,0,0,0,4.95,1.42,8.64,8.64,0,0,0,4.92-1.42,9.38,9.38,0,0,0,3.28-3.88,13.37,13.37,0,0,0,0-10.94Z"/><path class="cls-1" d="M364,481.93a11.67,11.67,0,0,1-4.79-2.93,7.7,7.7,0,0,1-2-5.66,8.41,8.41,0,0,1,1.63-5,11.09,11.09,0,0,1,4.76-3.66,18.2,18.2,0,0,1,7.38-1.38,25.28,25.28,0,0,1,7.72,1.14A19.06,19.06,0,0,1,385,467.8L380.15,474a15.21,15.21,0,0,0-4.79-2.67,16.54,16.54,0,0,0-5.31-.9,4.48,4.48,0,0,0-2.8.74,2.43,2.43,0,0,0-.93,2,2,2,0,0,0,1.37,1.83,32.05,32.05,0,0,0,4.59,1.49A48.73,48.73,0,0,1,379,478.3a12.28,12.28,0,0,1,4.79,3.24,8.49,8.49,0,0,1,2,6,10.36,10.36,0,0,1-3.78,8.41q-3.78,3.13-10.61,3.14-9.58,0-15.33-5.12l4.71-6.54a15.89,15.89,0,0,0,4.87,3.29,14.9,14.9,0,0,0,6.16,1.27,5.32,5.32,0,0,0,3.6-1.14,3.67,3.67,0,0,0,1.32-2.91,2.83,2.83,0,0,0-1.4-2.61"/><path class="cls-1" d="M399.9,471.4a3.38,3.38,0,0,1-1.36-.93,2.64,2.64,0,0,1-.57-1.8,2.88,2.88,0,0,1,.46-1.58,3.2,3.2,0,0,1,1.34-1.16,4.7,4.7,0,0,1,2.09-.44,6.47,6.47,0,0,1,2.18.36,5.29,5.29,0,0,1,1.78,1.07l-1.37,2a4,4,0,0,0-1.36-.85,4.2,4.2,0,0,0-1.5-.29,1.15,1.15,0,0,0-.79.24.83.83,0,0,0-.26.63.62.62,0,0,0,.39.58,8.53,8.53,0,0,0,1.29.48,12.08,12.08,0,0,1,1.9.58,3.36,3.36,0,0,1,1.36,1,2.91,2.91,0,0,1,.57,1.88,3.47,3.47,0,0,1-1.06,2.67,4.22,4.22,0,0,1-3,1,5.81,5.81,0,0,1-4.33-1.63l1.33-2.07a4.33,4.33,0,0,0,1.38,1,3.78,3.78,0,0,0,1.74.41,1.4,1.4,0,0,0,1-.36,1.24,1.24,0,0,0,.37-.93.94.94,0,0,0-.39-.83"/><path class="cls-1" d="M407.49,474.2a1.23,1.23,0,0,1,1-.46,1.26,1.26,0,0,1,1,.46,1.64,1.64,0,0,1,0,2.17,1.3,1.3,0,0,1-1,.46,1.26,1.26,0,0,1-1-.46,1.64,1.64,0,0,1,0-2.17Z"/><path class="cls-1" d="M417.61,475.05h-3.85l-.48,1.58h-2.85l3.67-11h3.16l3.68,11h-2.85Zm-3.24-2.25h2.55l-1.24-4.12Z"/><path class="cls-1" d="M421.92,474.2a1.25,1.25,0,0,1,1-.46,1.23,1.23,0,0,1,1,.46,1.64,1.64,0,0,1,0,2.17,1.26,1.26,0,0,1-1,.46,1.28,1.28,0,0,1-1-.46,1.64,1.64,0,0,1,0-2.17Z"/></g></svg>