<svg id="Capa_1" data-name="Capa 1" xmlns="http://www.w3.org/2000/svg" viewBox="0 0 1280 394.3"><defs><style>.cls-1{fill:#304e43;}</style></defs><title>logo_nativo27</title><path class="cls-1" d="M37.9,69.15v256h156v-256Zm150.5,5.5v141.1l-16.3,8.4v-132H59.7v131.4l-16.3-8.4V74.65ZM65.2,232.45l16.4,8.4v39.4h32v16.4H65.2Zm101.5-51.1-16.4,8.5v-75.8H81.6v74.8l-16.4-8.5V97.65H166.7Zm-79.6,62.4,26.5,13.6v17.5H87.1Zm57.6-97.3-25.8,13.6v-40.5h25.8ZM87.1,152l26.5,13.6v39.8l-26.5-13.7Zm0-6.1v-26.4h26.5v40Zm26.5,65.6v39.8l-26.5-13.6V198Zm5.3,46.4,25.8-13.4v30.3H118.9Zm0-6.1v-39.7l25.8-13.2v39.6Zm0-45.9v-39.8l25.8-13.2v39.7Zm-53.7-20.8.2,1.8,16.2,8.3v39.6l-16.4-8.4Zm53.7,95.3h31.3v-38.7l16.4-8.5v63.6H118.9Zm31.3-44.8v-39.5l16.4-8.4v39.4ZM43.4,221.35l16.3,8.4v72.6h53.9v17.5H43.4Zm75.5,98.3v-17.5h53.2v-71.9l16.3-8.4v97.8Z"/><path class="cls-1" d="M296.2,264.15h-7.7l-34.9-99.9v99.9h-7V146.65h7.7l34.9,100.1V146.65h7Z"/><path class="cls-1" d="M510.4,153.35h-16v110.8h-7V153.35H471.3v-6.7h39.1Z"/><path class="cls-1" d="M580.4,264.15h-7V146.65h7Z"/><path class="cls-1" d="M703,146.65l-29.6,119.9-29.5-119.9h6.9l22.6,95.9,22.7-95.9Z"/><path class="cls-1" d="M873.3,205.45a59.07,59.07,0,0,1-17,42.3c-11.3,11.8-25,17.7-41,17.7s-29.7-5.9-41.1-17.7-17-25.9-17-42.3a58.67,58.67,0,0,1,17-42.2c11.3-11.7,25-17.6,41.1-17.6s29.7,5.9,41,17.6A58.67,58.67,0,0,1,873.3,205.45Zm-7.4,0c0-14.7-4.9-27.2-14.8-37.5s-21.8-15.4-35.8-15.4-25.9,5.1-35.9,15.4-14.9,22.8-14.9,37.5a52.56,52.56,0,0,0,14.9,37.6c9.9,10.3,21.9,15.5,35.9,15.5s25.9-5.2,35.8-15.5S865.9,220.15,865.9,205.45Z"/><path class="cls-1" d="M996.7,146.65l-54.6,117.5h-6.6l54.6-117.5Z"/><path class="cls-1" d="M1119.3,171.55c0,7.1-2.2,14.1-6.7,21-2.5,3.8-7.3,9.5-14.5,17.1s-12.4,14.2-15.4,19.6a56.89,56.89,0,0,0-7.2,28.2h42.6v6.7h-49.7v-8.7q0-23.7,21.3-46.7c8.2-9,13.2-14.5,14.8-16.7,5.1-7,7.6-13.9,7.6-20.5a18.63,18.63,0,0,0-5.3-13.5,17.11,17.11,0,0,0-12.8-5.5,18.6,18.6,0,0,0-17,11.6h-7.4a25.8,25.8,0,0,1,9.2-13.3,24.85,24.85,0,0,1,33.1,2.4A25.53,25.53,0,0,1,1119.3,171.55Z"/><path class="cls-1" d="M1242.1,146.65l-39.5,117.5h-7.7l37.1-110.8h-43.8v-6.7Z"/><path class="cls-1" d="M418.8,264.15h-6.9l-8.4-33.3H375l-8.4,33.3h-6.9l29.5-120.5Zm-17-40-12.6-56.9-12.7,56.9Z"/></svg>