<svg xmlns="http://www.w3.org/2000/svg" viewBox="0 0 507.27 648.09"><defs><style>.cls-1{opacity:0.3;}.cls-2{fill:#ddc26c;}</style></defs><title>Insumos_pagina</title><g id="Marcas_agua"><g class="cls-1"><path class="cls-2" d="M345.7,405.1l-181.08,0-3-6.45,181.08,0Z"/><path class="cls-2" d="M232.53,271q0,11.56-7.4,22.75-4,6.13-16,18.53t-17,21.28a60.76,60.76,0,0,0-7.94,30.57h46.9v7.28H176.43V362q0-25.68,23.45-50.65,13.62-14.58,16.33-18.13,8.39-11.46,8.38-22.22a20.08,20.08,0,0,0-5.86-14.66,19.08,19.08,0,0,0-14.07-5.95A20.33,20.33,0,0,0,186,263h-8.11a27.91,27.91,0,0,1,10.1-14.4,27,27,0,0,1,16.68-5.6,26.64,26.64,0,0,1,19.75,8.27A27.27,27.27,0,0,1,232.53,271Z"/><path class="cls-2" d="M330.84,244,287.37,371.45h-8.48l40.86-120.13H271.5V244Z"/><path class="cls-2" d="M54.29,329.68a2.72,2.72,0,0,1-2.67,2.85,2.73,2.73,0,0,1-2-.74,2.6,2.6,0,0,1-.88-1.94,2.56,2.56,0,0,1,.76-2,2.75,2.75,0,0,1,2-.84,2.68,2.68,0,0,1,2,.72A2.63,2.63,0,0,1,54.29,329.68Z"/><path class="cls-2" d="M70.38,255.52a10.48,10.48,0,0,1,2.89,5.87,17.43,17.43,0,0,1-8.48,17.74,15.66,15.66,0,0,1-12.55,1.22,15.57,15.57,0,0,1-9.74-7.8,15.91,15.91,0,0,1-1-12.62,15,15,0,0,1,4.82-7.54c2.23-1.77,4.4-2.36,6.51-1.72h.05a2.23,2.23,0,0,1,1.56,2.88,2.39,2.39,0,0,1-3,1.63A2.36,2.36,0,0,1,49.94,254a2.39,2.39,0,0,1-.12-1.84,1.68,1.68,0,0,1,.15-.36,7.24,7.24,0,0,0-4.24,2.23,12.62,12.62,0,0,0-2.92,5.2,12.17,12.17,0,0,0,1.11,10.46q2.91,4.66,9.49,6.64t11.67-.28a12.08,12.08,0,0,0,6.81-7.93c1.4-4.56.46-8.88-2.42-11.85Z"/><path class="cls-2" d="M81.08,236.7a15.74,15.74,0,0,1-12.39-2,15.67,15.67,0,0,1-5.34-22.23A16.13,16.13,0,0,1,85.86,207a15.63,15.63,0,0,1,5.32,22.25A16,16,0,0,1,81.08,236.7Zm10.4-17.65c-1.24-3.32-3.83-6.17-7.81-8.56s-7.74-3.35-11.3-2.91A10.92,10.92,0,0,0,64.13,213a10.45,10.45,0,0,0-1,9.63q1.84,5,7.79,8.58c4,2.4,7.75,3.35,11.32,2.89a10.81,10.81,0,0,0,8.23-5.32A10.63,10.63,0,0,0,91.48,219.05Z"/><path class="cls-2" d="M107.2,161.62l.78-.74,22,22.48-1.1,1L92.27,180.3,112,200.46l-.78.75-22-22.49,2.44-2.32,33.79,3.85Z"/><path class="cls-2" d="M149.65,133.34l.46.77-9.17,5.34,15.68,26.15-3.46,2-15.68-26.15-9.26,5.39-.47-.77Z"/><path class="cls-2" d="M198.55,147.92l-6.9-7.43-15,5.08-.84,10.06-1.21.41,2.84-34,1.67-.56,23.42,25.1Zm-21.83-3.31L191,139.77l-12.72-13.66Z"/><path class="cls-2" d="M244.7,135a10.69,10.69,0,0,1-4.39,4.88,18,18,0,0,1-19.89-.87A16.14,16.14,0,0,1,218,116.22a16.45,16.45,0,0,1,11.44-5.8,15.45,15.45,0,0,1,8.91,1.48c2.52,1.34,3.91,3.09,4.13,5.25v0a2.23,2.23,0,0,1-2.09,2.53,2.41,2.41,0,0,1-1.81-.5,2.2,2.2,0,0,1-.88-1.62,2.27,2.27,0,0,1,.53-1.76,2.44,2.44,0,0,1,1.67-.82,1.73,1.73,0,0,1,.4,0,7.18,7.18,0,0,0-3.74-3,12.93,12.93,0,0,0-6-.65,12.56,12.56,0,0,0-9.38,5c-2.16,3-3,6.7-2.55,11.2s2.05,8,4.75,10.5a12.34,12.34,0,0,0,10.05,3.13c4.82-.48,8.5-3,10.18-6.76Z"/><path class="cls-2" d="M288.38,113.11l-.11.88-10.56-1.28-3.77,30.12-4-.48,3.77-30.12-10.67-1.3.11-.89Z"/><path class="cls-2" d="M302.66,144.25a15.16,15.16,0,0,1-.48-12.37,15.58,15.58,0,0,1,8.39-9.2,16.27,16.27,0,0,1,12.68-.37,16,16,0,0,1,9.54,8.3,15.34,15.34,0,0,1,.45,12.36,15.62,15.62,0,0,1-8.38,9.21,16.36,16.36,0,0,1-12.72.35A16,16,0,0,1,302.66,144.25Zm19.65,6.55c3.06-1.85,5.39-4.92,7-9.24s1.79-8.15.65-11.5a11.65,11.65,0,0,0-16.79-6q-4.62,2.77-7,9.24t-.63,11.51a10.72,10.72,0,0,0,6.93,6.9A11.08,11.08,0,0,0,322.31,150.8Z"/><path class="cls-2" d="M388.55,194a10.92,10.92,0,0,1-6.62.07,16.68,16.68,0,0,1-6.92-3.83A16.17,16.17,0,0,1,369.26,179a15.14,15.14,0,0,1,4.23-11.71,15.76,15.76,0,0,1,11.32-5.35,16.52,16.52,0,0,1,12,4.47,15,15,0,0,1,4.87,7.5c.68,2.75.29,4.93-1.19,6.54l0,0a2.29,2.29,0,0,1-3.31.16,2.32,2.32,0,0,1-.84-1.65,2.21,2.21,0,0,1,.63-1.73,2.4,2.4,0,0,1,1.68-.8,2.52,2.52,0,0,1,1.74.67,1.32,1.32,0,0,1,.27.3,7,7,0,0,0-.25-4.74,14,14,0,0,0-13.6-8.29c-3.68.4-7.07,2.29-10.14,5.64s-4.67,6.89-4.72,10.51a12,12,0,0,0,4.37,9.45c3.6,3.2,8,4.2,11.92,2.9Z"/><path class="cls-2" d="M401.26,211.54a15.36,15.36,0,0,1,7.11-10.2,16.17,16.17,0,0,1,22.68,4.73,15.62,15.62,0,0,1-4.52,22.42,15.86,15.86,0,0,1-12.28,2.45,16.09,16.09,0,0,1-10.41-7.2A15.59,15.59,0,0,1,401.26,211.54ZM413,228.34c3.58.31,7.3-.78,11.19-3.3s6.38-5.48,7.49-8.84a10.57,10.57,0,0,0-1.42-9.64,10.77,10.77,0,0,0-8.4-5q-5.37-.5-11.2,3.28c-3.89,2.53-6.37,5.47-7.48,8.85a10.53,10.53,0,0,0,1.37,9.6A11,11,0,0,0,413,228.34Z"/><path class="cls-2" d="M458.93,267.06l.34,1L429.18,278l-.48-1.43,19.54-30.82-27,8.89-.35-1L451,243.69l1.08,3.17L434,275.27Z"/><path class="cls-2" d="M435.72,326.15,435.06,343l-.91,0,.81-20.85,31.68,1.2-.16,4Z"/><path class="cls-2" d="M425.5,381.84l10.12-1.44,4.17-15.07-8-6.34.34-1.22,26.94,21.44-.47,1.68-34.24,5Zm15.06-15.92-4,14.34,18.62-2.68Z"/><path class="cls-2" d="M416.06,461.58l-.65.86L390,443.75l.91-1.21,36.84-1.77L404.93,424l.65-.86L431,441.84l-2,2.67-34,1.59Z"/><path class="cls-2" d="M358.42,472.13l9.08,4.62,12.29-9.88L377,457.14l1-.8,9.3,32.88L386,490.33l-30.82-15.56Zm21.65-4.34-11.69,9.41,16.75,8.48Z"/><path class="cls-2" d="M338.79,519.44l-.43-.79,9.43-4.87-14.3-26.9,3.57-1.84,14.3,26.9,9.53-4.91.42.79Z"/><path class="cls-2" d="M305.06,501.77a11.94,11.94,0,0,1,6.07,8l4.76,18.3-3.93,1-4.92-19a10.45,10.45,0,0,0-4.8-6.8,10.74,10.74,0,0,0-8.32-.92,10.08,10.08,0,0,0-6.7,4.68,10.62,10.62,0,0,0-.79,8.23l4.92,19-1.05.26-4.94-19a11.62,11.62,0,0,1,1.06-9.31q2.46-4,8.11-5.42A14.2,14.2,0,0,1,305.06,501.77Z"/><path class="cls-2" d="M239.42,510.34a9.69,9.69,0,0,0-2.95-3.36l4.61-.06a8.56,8.56,0,0,1,2.4,2.56l4.92,8.24a6.24,6.24,0,0,0,2.8,2.44l7.7-.1-.19-13.38,4-.06.44,31.26-12.46.17a13.07,13.07,0,0,1-8.27-2.44,7.82,7.82,0,0,1-.79-12.22,11.82,11.82,0,0,1,6.82-3,7.61,7.61,0,0,1-4.89-3.24ZM259.14,537,258.91,521l-7.65.11a8,8,0,0,0-5.84,2.28,8.85,8.85,0,0,0,.17,11.71,8,8,0,0,0,5.89,2.1Z"/><path class="cls-2" d="M197.72,499.92l1.88,9.9,15.46,3.48,6.09-8.11,1.25.28-20.61,27.41-1.73-.38L193.6,499Zm16.77,14.16-14.71-3.3,3.5,18.22Z"/><path class="cls-2" d="M173.09,491.72l-15.46-7.34.4-.81,19.08,9.06-13.76,28.16-3.63-1.72Z"/><path class="cls-2" d="M139.15,472.32l-14.43-11.07.55-.7,17.61,13.5L123.4,498.71l-17.25-13.24.55-.7,14.09,10.8,8.76-11.09-11.22-8.61.55-.7,11.22,8.6Z"/><path class="cls-2" d="M73.52,450.48l.56-.46L110,446.33l-12.6-15.1.7-.57,15.48,18.55-.56.46L77.1,453.36,89.32,468l-.7.57Z"/><path class="cls-2" d="M78.46,396.21l-6.57,7.7,7.06,14,10.23-.48.57,1.13-34.58,1.65-.79-1.56,22.2-26.15ZM78,418l-6.72-13.3-12.09,14.2Z"/></g></g></svg>